<?xml version="1.0"?>
<svg xmlns="http://www.w3.org/2000/svg" version="1.1" width="140" height="80" viewBox="0 0 14 8">
<g>
<rect width="14" height="8" fill="#333" stroke="none"/>
<circle class="a" cx="1" cy="4" r="0.5" fill="#666" stroke="#000" stroke-width="0.1"/>
<circle class="b" cx="3" cy="4" r="0.5" fill="#666" stroke="#000" stroke-width="0.1"/>
<circle class="c" cx="5" cy="4" r="0.5" fill="#FE0" stroke="#000" stroke-width="0.1"/>
<circle class="d" cx="7" cy="4" r="0.5" fill="#666" stroke="#000" stroke-width="0.1"/>
<circle class="e" cx="9" cy="4" r="0.5" fill="#FE0" stroke="#000" stroke-width="0.1"/>
<circle class="f" cx="11" cy="4" r="0.5" fill="#666" stroke="#000" stroke-width="0.1"/>
<circle class="g" cx="13" cy="4" r="0.5" fill="#FE0" stroke="#000" stroke-width="0.1"/>
<circle class="h" cx="2" cy="2.5" r="0.5" fill="#666" stroke="#000" stroke-width="0.1"/>
<circle class="j" cx="4" cy="2.5" r="0.5" fill="#FE0" stroke="#000" stroke-width="0.1"/>
<circle class="k" cx="6" cy="2.5" r="0.5" fill="#666" stroke="#000" stroke-width="0.1"/>
<circle class="l" cx="8" cy="2.5" r="0.5" fill="#FE0" stroke="#000" stroke-width="0.1"/>
<circle class="m" cx="10" cy="2.5" r="0.5" fill="#666" stroke="#000" stroke-width="0.1"/>
<circle class="n" cx="12" cy="2.5" r="0.5" fill="#FE0" stroke="#000" stroke-width="0.1"/>
<circle class="h" cx="2" cy="5.5" r="0.5" fill="#666" stroke="#000" stroke-width="0.1"/>
<circle class="j" cx="4" cy="5.5" r="0.5" fill="#FE0" stroke="#000" stroke-width="0.1"/>
<circle class="k" cx="6" cy="5.5" r="0.5" fill="#666" stroke="#000" stroke-width="0.1"/>
<circle class="l" cx="8" cy="5.5" r="0.5" fill="#FE0" stroke="#000" stroke-width="0.1"/>
<circle class="m" cx="10" cy="5.5" r="0.5" fill="#666" stroke="#000" stroke-width="0.1"/>
<circle class="n" cx="12" cy="5.5" r="0.5" fill="#FE0" stroke="#000" stroke-width="0.1"/>
<circle class="p" cx="3" cy="1" r="0.5" fill="#FE0" stroke="#000" stroke-width="0.1"/>
<circle class="q" cx="7" cy="1" r="0.5" fill="#FE0" stroke="#000" stroke-width="0.1"/>
<circle class="r" cx="11" cy="1" r="0.5" fill="#FE0" stroke="#000" stroke-width="0.1"/>
<circle class="p" cx="3" cy="7" r="0.5" fill="#FE0" stroke="#000" stroke-width="0.1"/>
<circle class="q" cx="7" cy="7" r="0.5" fill="#FE0" stroke="#000" stroke-width="0.1"/>
<circle class="r" cx="11" cy="7" r="0.5" fill="#FE0" stroke="#000" stroke-width="0.1"/>
</g>
</svg>
